# xmcd
#
# Track frame offsets:
#	150
#	15057
#	28367
#	42912
#	58489
#	71700
#	89922
#	100095
#	111705
#	128822
#	140890
#	153190
#
# Disc length: 2250 seconds
#
# Revision: 0
# Processed by: cddbd v1.5.2PL0 Copyright (c) Steve Scherf et al.
# Submitted via: dBpowerAMP V4.0
#
DISCID=b308c80c
DTITLE=Various Artist - All-Time Greatest Hits Of Country Volume 1
DYEAR=1900
DGENRE=Country
TTITLE0=Bellamy Brothers/Let Your Love Flow
TTITLE1=Mel Tillis/New Patches
TTITLE2=Moe Bandy/Too Old To Die Young
TTITLE3=Desert Rose Band/One Step Forward
TTITLE4=Sawyer Brown/The Race Is On
TTITLE5=Hank Williams Jr/Family Tradition
TTITLE6=Sonny James/You're The Only World I Know
TTITLE7=Debby Boone/Are You On The Road To Lovin' Me Again
TTITLE8=Jonny Lee/Lookin' For Love
TTITLE9=Marie Osmond/Paper Roses
TTITLE10=Gene Watson/Got No Reason For Goin' Home
TTITLE11=Ronnie McDowell/Unchained Melody
EXTD=All-Time Greatest Hits Of Country Volume 1
EXTT0=
EXTT1=
EXTT2=
EXTT3=
EXTT4=
EXTT5=
EXTT6=
EXTT7=
EXTT8=
EXTT9=
EXTT10=
EXTT11=
PLAYORDER=
